<svg width="75" height="72" viewBox="0 0 75 72" fill="none" xmlns="http://www.w3.org/2000/svg">
<path d="M57.3418 4.79999C58.0751 3.19999 59.1085 2 60.4418 1.2C61.7751 0.399997 63.2418 -3.8147e-06 64.8418 -3.8147e-06C67.2418 -3.8147e-06 69.4085 0.766663 71.3418 2.3C73.2751 3.83333 74.2418 5.76666 74.2418 8.1C74.2418 9.23333 73.9418 10.4 73.3418 11.6L46.9418 66.1C46.0751 67.9 44.7751 69.3 43.0418 70.3C41.3085 71.2333 39.4418 71.7 37.4418 71.7C35.4418 71.7 33.5751 71.2333 31.8418 70.3C30.1085 69.3 28.8085 67.9 27.9418 66.1L1.5418 11.6C1.00846 10.5333 0.741797 9.36667 0.741797 8.1C0.741797 5.83333 1.7418 3.93333 3.7418 2.4C5.7418 0.799996 7.97513 -3.8147e-06 10.4418 -3.8147e-06C12.0418 -3.8147e-06 13.5085 0.399997 14.8418 1.2C16.2418 2 17.3085 3.19999 18.0418 4.79999L37.7418 47.4L57.3418 4.79999Z" fill="#FF2D2D"/>
</svg>
