<svg width="107" height="73" viewBox="0 0 107 73" fill="none" xmlns="http://www.w3.org/2000/svg">
<path d="M90.1453 6.6C90.812 4.73333 91.8786 3.3 93.3453 2.3C94.8787 1.3 96.5453 0.799999 98.3453 0.799999C100.545 0.799999 102.445 1.5 104.045 2.9C105.712 4.3 106.545 6.2 106.545 8.6C106.545 9.66666 106.279 11 105.745 12.6L85.6453 67C84.9786 68.8667 83.7453 70.3333 81.9453 71.4C80.212 72.4 78.2787 72.9 76.1453 72.9C74.012 72.9 72.0787 72.4 70.3453 71.4C68.612 70.3333 67.412 68.8667 66.7453 67L53.7453 29.9L40.1453 67C39.412 68.8667 38.1786 70.3333 36.4453 71.4C34.712 72.4 32.812 72.9 30.7453 72.9C28.612 72.9 26.6786 72.4 24.9453 71.4C23.212 70.3333 22.012 68.8667 21.3453 67L1.14531 12.6C0.678646 11.2667 0.445313 10 0.445313 8.8C0.445313 6.33333 1.31198 4.4 3.04531 2.99999C4.84531 1.53333 6.91198 0.799999 9.24531 0.799999C11.112 0.799999 12.812 1.3 14.3453 2.3C15.9453 3.23333 17.0786 4.66666 17.7453 6.6L31.4453 46L45.9453 6.6C46.612 4.73333 47.6786 3.3 49.1453 2.3C50.6786 1.3 52.3453 0.799999 54.1453 0.799999C55.9453 0.799999 57.5787 1.3 59.0453 2.3C60.512 3.3 61.5786 4.76666 62.2453 6.69999L75.8453 46.9L90.1453 6.6Z" fill="#FF2D2D"/>
</svg>
